# xmcd
#
# Track frame offsets: 
#        150
#        11789
#        23591
#        37505
#        53389
#        69867
#        81472
#        96754
#        112108
#        126885
#        143651
#        163393
#        179654
#        198674
#
# Disc length: 2880 seconds
#
# Revision: 1
# Processed by: cddbd v1.5.2PL0 Copyright (c) Steve Scherf et al.
# Submitted via: ExactAudioCopy v1.3
#
DISCID=b90b3e0e
DTITLE=The Hackensaw Boys - Keep It Simple
DYEAR=2002
DGENRE=Folk
TTITLE0=Dance Around
TTITLE1=Ruby Pearl
TTITLE2=Jonah
TTITLE3=Miner
TTITLE4=Smilin' Must Mean Something
TTITLE5=Blue Run
TTITLE6=Nashville
TTITLE7=Keep It Simple
TTITLE8=Grandma
TTITLE9=When You Said I Love You
TTITLE10=Gypsy
TTITLE11=Keep Me Lord
TTITLE12=Leni
TTITLE13=Wherever You Are
EXTD=
EXTT0=Dance Around
EXTT1=
EXTT2=
EXTT3=
EXTT4=
EXTT5=
EXTT6=
EXTT7=
EXTT8=
EXTT9=
EXTT10=
EXTT11=
EXTT12=
EXTT13=
PLAYORDER=
